<?xml version="1.0" encoding="UTF-8"?>
<!-- Generator: Adobe Illustrator 28.0.0, SVG Export Plug-In . SVG Version: 6.00 Build 0)  -->
<svg xmlns="http://www.w3.org/2000/svg" xmlns:xlink="http://www.w3.org/1999/xlink" version="1.1" id="Layer_1" x="0px" y="0px" viewBox="0 0 31.5 30.5" style="enable-background:new 0 0 31.5 30.5;" xml:space="preserve">
<style type="text/css">
	.st0{fill:none;stroke:#000000;stroke-linecap:round;stroke-linejoin:round;stroke-miterlimit:10;}
</style>
<g>
	<path class="st0" d="M20.8,15.8h1c1.7,0,3,1.3,3,3s-1.3,3-3,3h-1"></path>
	<path class="st0" d="M20.8,24.8c0,1.1-0.9,2-2,2h-9c-1.1,0-2-0.9-2-2v-11h13V24.8z"></path>
	<path class="st0" d="M20.7,3.9c1,1.6-0.5,2.4-0.9,3.3s0,1.8,0.9,2.1C23.6,10.5,24.5,4.8,20.7,3.9z"></path>
	<line class="st0" x1="17.8" y1="13.8" x2="20.4" y2="9.1"></line>
	<line class="st0" x1="21.4" y1="9.5" x2="19.8" y2="13.8"></line>
	<polygon class="st0" points="11.8,13.8 8.8,13.8 7.3,10.8 6.8,7.8 9.3,9.3  "></polygon>
	<line class="st0" x1="7.3" y1="10.8" x2="9.3" y2="9.3"></line>
	<rect x="12.8" y="3.8" class="st0" width="4" height="10"></rect>
	<line class="st0" x1="16.8" y1="5.8" x2="14.8" y2="5.8"></line>
	<line class="st0" x1="16.8" y1="7.8" x2="15.8" y2="7.8"></line>
	<line class="st0" x1="16.8" y1="9.8" x2="14.8" y2="9.8"></line>
	<line class="st0" x1="16.8" y1="11.8" x2="15.8" y2="11.8"></line>
</g>
</svg>
