<?xml version="1.0" encoding="utf-8"?>
<!-- Generator: Adobe Illustrator 24.1.1, SVG Export Plug-In . SVG Version: 6.00 Build 0)  -->
<svg version="1.1" id="Layer_1" xmlns="http://www.w3.org/2000/svg" xmlns:xlink="http://www.w3.org/1999/xlink" x="0px" y="0px"
	 viewBox="0 0 512 512" style="enable-background:new 0 0 512 512;" xml:space="preserve">
<g>
	<path d="M16.05,512c-8.83,0-16-7.17-16-16L-0.01,67.35l0.08-1.09L0.05,16c0-8.83,7.17-16,16-16s16,7.17,16,16v29.68l46.53-14.31
		c21.07-6.49,42.96-9.77,65.02-9.77c40.94,0,81,11.32,115.86,32.76c29.78,18.33,64.08,28.01,99.22,28.01
		c17.56,0,34.99-2.43,51.8-7.23l50.53-14.44c3.52-1.01,7.17-1.52,10.86-1.52c10.63,0,20.99,4.27,28.42,11.69
		c7.55,7.57,11.71,17.63,11.71,28.29v274.63c0,17.75-11.93,33.58-28.99,38.47l-63.75,18.19c-19.67,5.61-40.04,8.48-60.58,8.48
		c-41.06,0-81.18-11.33-115.99-32.77c-29.8-18.32-64.08-28.01-99.11-28.01c-18.85,0-37.56,2.81-55.59,8.34l-55.92,17.21v92.29
		C32.05,504.83,24.89,512,16.05,512z M143.58,346.14c40.94,0,81.02,11.32,115.86,32.77c29.78,18.32,64.08,28.01,99.2,28.01
		c17.55,0,34.99-2.44,51.82-7.24l63.72-18.2c3.42-0.98,5.8-4.16,5.8-7.7V99.16c0-2.18-0.81-4.11-2.34-5.66
		c-1.48-1.47-3.56-2.32-5.72-2.32l-2.14,0.3l-50.54,14.44c-19.67,5.61-40.06,8.47-60.58,8.47c-41.06,0-81.18-11.32-115.99-32.74
		c-29.8-18.35-64.08-28.03-99.09-28.03c-18.85,0-37.56,2.81-55.59,8.35L32.05,79.15v291.09l46.51-14.31
		C99.66,349.42,121.52,346.14,143.58,346.14z"/>
	<path d="M329.09,303.29c-4.26,0-8.29-1.66-11.3-4.69c-3.01-3.03-4.7-7.04-4.7-11.31c0-4.28,1.67-8.29,4.7-11.32l51.3-51.28
		l-51.3-51.31c-3.03-3.01-4.7-7.04-4.7-11.3c0-4.27,1.67-8.3,4.7-11.31c3.03-3.03,7.04-4.69,11.3-4.69c4.27,0,8.3,1.66,11.31,4.69
		l62.61,62.61c3.03,3.03,4.69,7.04,4.69,11.31c0,4.26-1.66,8.29-4.69,11.3l-62.61,62.59C337.4,301.64,333.36,303.29,329.09,303.29z"
		/>
	<path d="M183.01,303.29c-4.27,0-8.3-1.66-11.31-4.69l-62.59-62.59c-3.02-3.01-4.69-7.04-4.69-11.3c0-4.27,1.67-8.3,4.67-11.31
		l62.59-62.61c3.03-3.03,7.04-4.69,11.31-4.69c4.26,0,8.29,1.66,11.3,4.67c6.25,6.25,6.25,16.39,0,22.64l-51.28,51.31l51.28,51.28
		c3.03,3.03,4.7,7.04,4.7,11.3c0,4.27-1.67,8.3-4.7,11.31C191.3,301.64,187.27,303.29,183.01,303.29z"/>
	<path d="M235.19,303.29l-5.07-0.82c-4.03-1.34-7.32-4.21-9.24-8.03c-1.92-3.81-2.22-8.17-0.88-12.22l41.73-125.21
		c2.18-6.54,8.25-10.94,15.15-10.94l5.09,0.83c8.36,2.79,12.89,11.85,10.11,20.22l-41.73,125.21
		C248.18,298.91,242.08,303.29,235.19,303.29z"/>
</g>
</svg>
